<?xml version="1.0" standalone="no"?>
<!DOCTYPE svg PUBLIC "-//W3C//DTD SVG 20010904//EN"
 "http://www.w3.org/TR/2001/REC-SVG-20010904/DTD/svg10.dtd">
<svg version="1.0" xmlns="http://www.w3.org/2000/svg"
 width="512.000000pt" height="512.000000pt" viewBox="0 0 512.000000 512.000000"
 preserveAspectRatio="xMidYMid meet">

<g transform="translate(0.000000,512.000000) scale(0.100000,-0.100000)"
fill="#000000" stroke="none">
<path d="M145 5016 c-60 -28 -97 -66 -124 -126 -20 -45 -21 -56 -21 -1841 l0
-1796 26 -27 27 -26 925 0 924 0 -4 -22 c-2 -13 -31 -157 -63 -321 l-60 -297
-101 0 c-96 0 -103 -1 -128 -26 -25 -26 -26 -29 -26 -160 l0 -134 -80 0 -80 0
0 -80 0 -80 1200 0 1200 0 0 80 0 80 -80 0 -80 0 0 126 c0 183 -8 193 -155
194 l-100 0 -60 298 c-32 163 -61 307 -63 319 l-4 23 923 0 c977 1 942 -1 967
47 9 16 12 469 12 1810 0 1777 -1 1788 -21 1833 -27 60 -64 98 -124 126 l-50
24 -2365 0 -2365 0 -50 -24z m4776 -149 c39 -30 39 -14 39 -1341 l0 -1286
-120 0 -120 0 0 1166 c0 1203 0 1191 -39 1221 -23 18 -4219 18 -4242 0 -39
-30 -39 -18 -39 -1221 l0 -1166 -120 0 -120 0 0 1293 c1 1362 -1 1308 45 1335
30 17 4694 16 4716 -1z m-361 -1507 l0 -1120 -320 0 -320 0 0 1006 c0 745 -3
1011 -12 1027 -24 46 -25 46 -389 47 l-346 0 -27 -26 -26 -27 0 -373 0 -374
80 0 80 0 0 320 0 320 240 0 240 0 0 -160 0 -160 -160 0 -160 0 0 -80 0 -80
160 0 160 0 0 -200 0 -200 -160 0 -160 0 0 -80 0 -80 160 0 160 0 0 -200 0
-200 -160 0 -160 0 0 -80 0 -80 160 0 160 0 0 -160 0 -160 -240 0 -240 0 0
320 0 320 -80 0 -80 0 0 -320 0 -320 -161 0 -160 0 3 243 3 243 33 66 c53 107
166 189 327 237 94 28 110 40 109 88 0 32 -57 132 -358 633 -196 327 -370 607
-387 623 -16 15 -38 27 -49 27 -11 0 -33 -12 -49 -27 -36 -33 -740 -1205 -747
-1242 -9 -51 14 -73 106 -101 173 -54 278 -129 332 -238 l33 -66 3 -243 3
-243 -160 0 -161 0 0 320 0 320 -80 0 -80 0 0 -320 0 -320 -40 0 -40 0 0 720
0 720 40 0 40 0 0 -80 0 -80 80 0 80 0 0 127 0 127 -111 260 c-61 144 -120
279 -131 302 -29 64 -88 82 -128 41 -12 -13 -78 -153 -146 -312 l-124 -290 0
-767 0 -768 -320 0 -320 0 0 1120 0 1120 2000 0 2000 0 0 -1120z m-2979 617
l56 -132 -59 -3 c-32 -2 -84 -2 -116 0 l-59 3 56 132 c31 73 58 133 61 133 3
0 30 -60 61 -133z m899 -617 l80 0 2 332 3 332 253 -421 c138 -232 252 -424
252 -426 0 -3 -43 -26 -96 -52 -163 -79 -294 -230 -319 -367 l-7 -38 -168 0
-168 0 -7 38 c-25 137 -156 288 -319 367 -53 26 -96 49 -96 52 0 2 114 194
253 426 l252 421 3 -332 2 -332 80 0z m-1040 -400 l0 -720 -40 0 -40 0 0 720
0 720 40 0 40 0 0 -720z m1200 -440 l0 -40 -160 0 -160 0 0 40 0 40 160 0 160
0 0 -40z m0 -240 l0 -40 -160 0 -160 0 0 40 0 40 160 0 160 0 0 -40z m2320
-560 l0 -360 -2400 0 -2400 0 0 360 0 360 2400 0 2400 0 0 -360z m-1845 -817
c32 -164 61 -308 63 -320 l4 -23 -622 0 -622 0 4 22 c2 13 31 157 63 321 l60
297 495 0 495 0 60 -297z m325 -583 l0 -80 -880 0 -880 0 0 80 0 80 880 0 880
0 0 -80z"/>
<path d="M2465 1976 c-191 -90 -191 -342 0 -432 29 -14 68 -24 95 -24 54 0
134 36 172 76 68 73 85 173 44 259 -59 125 -193 177 -311 121z m142 -156 c29
-27 37 -56 23 -89 -23 -56 -87 -65 -130 -19 -62 67 41 170 107 108z"/>
</g>
</svg>
