<?xml version="1.0" standalone="no"?>
<!DOCTYPE svg PUBLIC "-//W3C//DTD SVG 20010904//EN"
 "http://www.w3.org/TR/2001/REC-SVG-20010904/DTD/svg10.dtd">
<svg version="1.0" xmlns="http://www.w3.org/2000/svg"
 width="512.000000pt" height="512.000000pt" viewBox="0 0 512.000000 512.000000"
 preserveAspectRatio="xMidYMid meet">

<g transform="translate(0.000000,512.000000) scale(0.100000,-0.100000)"
fill="#000000" stroke="none">
<path d="M1315 4943 c-184 -20 -335 -147 -381 -323 -80 -306 193 -591 505
-526 200 42 341 214 341 417 0 197 -138 377 -321 418 -58 13 -107 18 -144 14z"/>
<path d="M2195 4821 c-42 -11 -70 -30 -89 -62 -14 -24 -16 -73 -16 -377 l0
-350 58 -32 c167 -94 227 -169 369 -459 l115 -234 71 6 c316 27 593 39 645 28
123 -25 227 -102 283 -212 47 -94 58 -87 61 44 l3 112 420 5 c454 5 446 4 479
61 14 24 16 99 16 704 0 737 2 711 -57 751 -27 18 -66 19 -1178 21 -632 0
-1163 -2 -1180 -6z m1000 -430 c104 -100 147 -122 249 -131 61 -6 81 -11 90
-26 12 -20 216 -496 216 -504 0 -3 -61 56 -135 130 -105 105 -135 141 -135
161 0 31 -44 79 -74 80 -46 3 -62 -3 -88 -32 -53 -56 -24 -143 51 -155 33 -5
59 -26 172 -141 109 -109 127 -132 99 -120 -176 72 -477 201 -486 208 -6 5
-14 43 -17 85 -7 99 -29 139 -133 245 -46 48 -84 90 -84 95 0 12 172 184 184
184 5 0 46 -36 91 -79z"/>
<path d="M660 3874 c-94 -25 -224 -115 -263 -183 l-18 -31 468 0 c497 0 507
-1 603 -50 55 -28 135 -103 166 -155 61 -105 59 -74 64 -745 l5 -615 113 -3
112 -3 0 106 0 105 1298 -2 1297 -3 5 -1017 5 -1018 36 -36 c77 -77 195 -59
245 38 12 23 14 188 14 1033 l0 1005 93 0 c76 0 99 4 132 23 45 25 85 92 85
142 -1 46 -34 109 -71 136 l-34 24 -624 3 -623 2 5 28 c22 110 -82 235 -232
279 -52 15 -61 21 -61 41 0 63 -78 153 -148 172 -31 8 -133 4 -427 -15 -213
-14 -389 -25 -390 -23 -2 2 -64 128 -139 282 -130 265 -140 282 -204 346 -72
73 -139 112 -229 135 -84 22 -1201 21 -1283 -1z m1400 -784 c78 -162 151 -307
162 -322 11 -16 40 -40 64 -54 42 -25 54 -27 142 -25 53 1 215 10 360 19 l262
17 0 -47 0 -48 -570 0 -570 0 0 382 c0 210 2 379 4 377 2 -2 68 -137 146 -299z"/>
<path d="M223 3490 c-88 -18 -151 -66 -195 -150 l-23 -45 0 -830 0 -830 23
-42 c28 -54 78 -104 128 -129 36 -17 69 -19 404 -24 l365 -5 0 -305 0 -305
-380 -217 c-274 -156 -385 -224 -397 -245 -10 -15 -18 -48 -18 -71 0 -37 6
-50 34 -78 29 -29 41 -34 81 -34 43 0 77 17 372 185 178 102 329 185 334 185
5 0 9 -27 9 -61 0 -72 20 -112 66 -134 40 -19 68 -19 108 0 47 22 66 62 66
135 0 46 3 61 13 58 7 -2 84 -43 170 -92 134 -77 158 -94 167 -121 6 -18 26
-50 45 -73 117 -135 342 -102 416 63 17 37 19 76 19 493 l0 452 -250 0 -250 0
0 -305 c0 -168 -2 -305 -4 -305 -6 0 -270 151 -284 162 -9 8 -12 79 -10 312
l3 301 435 5 c393 5 439 7 463 22 40 27 49 75 45 240 -3 130 -5 150 -24 175
-35 47 -66 52 -361 52 l-272 1 -3 678 c-3 666 -3 678 -24 723 -27 58 -85 116
-143 143 -45 20 -59 21 -566 23 -286 1 -539 -3 -562 -7z"/>
<path d="M2221 2041 c51 -32 105 -106 116 -160 5 -20 8 -115 8 -211 0 -188 -1
-193 -70 -310 -20 -35 -138 -887 -133 -962 5 -75 47 -142 112 -183 40 -24 62
-30 121 -33 61 -3 79 0 122 21 54 28 98 73 119 124 17 40 214 1428 214 1503 0
32 -8 72 -19 95 -23 51 -98 118 -149 133 -25 8 -120 12 -263 12 l-223 0 45
-29z"/>
</g>
</svg>
